<?xml version="1.0" standalone="no"?>
<!DOCTYPE svg PUBLIC "-//W3C//DTD SVG 1.0//EN" "http://www.w3.org/TR/2001/REC-SVG-20010904/DTD/svg10.dtd">
<svg xmlns="http://www.w3.org/2000/svg" xmlns:xlink="http://www.w3.org/1999/xlink" id="body_1" width="287" height="287">

<g transform="matrix(0.14013672 0 0 0.14013672 0 0)">
	<g transform="matrix(1 0 0 1 1024 1024)">
        <path d="M-352.947 -726.009L-201.161 -352.947L-107.896 -391.35L-259.681 -764.413L-352.947 -726.009zM-605.312 -533.992L-320.029 -248.708L-248.708 -320.029L-533.992 -605.312L-605.312 -533.992zM-764.413 -263.338L-393.179 -106.067L-352.947 -199.332L-724.18 -356.604L-764.413 -263.338zM-806.474 51.2047L-404.151 51.2047L-404.151 -49.3759L-806.474 -49.3759L-806.474 51.2047zM-724.18 356.604L-352.947 199.332L-393.179 106.067L-764.413 263.338L-724.18 356.604zM-533.992 605.312L-248.708 320.029L-320.029 248.708L-605.312 533.992L-533.992 605.312zM-263.338 764.413L-106.067 393.179L-199.332 352.947L-356.604 724.18L-263.338 764.413zM51.2047 806.474L51.2047 404.151L-49.3759 404.151L-49.3759 806.474L51.2047 806.474zM352.947 726.009L201.161 352.947L107.896 391.35L259.681 764.413L352.947 726.009zM605.312 533.992L320.029 248.708L248.708 320.029L533.992 605.312L605.312 533.992zM764.413 263.338L393.179 106.067L352.947 199.332L724.18 356.604L764.413 263.338zM806.474 -51.2047L404.151 -51.2047L404.151 49.3759L806.474 49.3759L806.474 -51.2047zM726.009 -352.947L352.947 -201.161L391.35 -107.896L764.413 -259.681L726.009 -352.947zM533.992 -605.312L248.708 -320.029L320.029 -248.708L605.312 -533.992L533.992 -605.312zM263.338 -764.413L106.067 -393.179L199.332 -352.947L356.604 -724.18L263.338 -764.413zM-51.2047 -806.474L-51.2047 -404.151L49.3759 -404.151L49.3759 -806.474L-51.2047 -806.474z" stroke="#000000" stroke-width="8.44" stroke-linecap="square" fill="#000000" fill-rule="nonzero" />
        <path d="M59.2995 -47.5536C 45.3075 -61.5456 25.3189 -70.8737 2.66515 -70.8737C -19.3223 -70.8737 -37.9783 -62.8782 -53.9692 -47.5536L-53.9692 -47.5536L-313.155 -47.5536L-313.155 -1.57986L-313.155 29.7356C -313.155 111.023 -247.192 174.32 -168.57 174.32C -89.9487 174.32 -23.9863 108.357 -23.9863 29.7356L-23.9863 29.7356L-23.9863 -15.5719C -17.9897 -21.5685 -9.9943 -24.8999 -0.666286 -24.8999C 8.66173 -24.8999 16.6572 -21.5685 22.6537 -15.5719L22.6537 -15.5719L22.6537 29.7356C 22.6537 111.023 88.6161 174.32 167.238 174.32C 245.86 174.32 313.155 109.024 313.155 29.7356L313.155 29.7356L313.155 -1.57986L313.155 -46.8873L59.2995 -46.8873L59.2995 -47.5536z" stroke="none" fill="#000000" fill-rule="nonzero" />
	</g>
</g>
</svg>